# xmcd
#
# Track frame offsets: 
#        150
#        15155
#        26043
#        41343
#        52388
#        72724
#
# Disc length: 1280 seconds
#
# Revision: 0
# Processed by: cddbd v1.5.2PL0 Copyright (c) Steve Scherf et al.
# Submitted via: ExactAudioCopyFreeDBPlugin 1.0
#
DISCID=4e04fe06
DTITLE=The Travelling Band - The Big Defreeze' Bonus Disc
DYEAR=2014
DGENRE=Alt. Country/Rock
TTITLE0=Took My Soul
TTITLE1=Pure Driven Chaos (Demo)
TTITLE2=Race From the Start (Demo)
TTITLE3=Quicksand (Demo)
TTITLE4=Hands Up (Acoustic)
TTITLE5=Passing Ships (Demo)
EXTD=
EXTT0=
EXTT1=
EXTT2=
EXTT3=
EXTT4=
EXTT5=
PLAYORDER=
